<svg xmlns="http://www.w3.org/2000/svg" width="900" height="620" viewBox="0 0 900 620">
  <rect width="900" height="620" fill="#f7f8f5"/>
  <g fill="#e2e0d8" stroke="#b9b7ad" stroke-width="4">
    <rect x="110" y="120" width="250" height="150"/>
    <rect x="430" y="120" width="320" height="150"/>
    <rect x="150" y="350" width="240" height="140"/>
    <rect x="470" y="345" width="250" height="145"/>
  </g>
  <g fill="none" stroke="#c8102e" stroke-width="12" stroke-linecap="round" stroke-linejoin="round">
    <path d="M80 305 C195 260 282 315 380 296 C485 276 510 245 610 270 C698 292 752 255 820 212"/>
    <path d="M260 555 C318 470 365 410 470 393 C560 380 655 425 760 360"/>
  </g>
  <g fill="#123456">
    <circle cx="80" cy="305" r="18"/>
    <circle cx="820" cy="212" r="18"/>
    <circle cx="260" cy="555" r="18"/>
    <circle cx="760" cy="360" r="18"/>
  </g>
  <g font-family="Arial, sans-serif" font-size="30" fill="#123456">
    <text x="110" y="78">Public circulation and service loop</text>
  </g>
</svg>
