<svg xmlns="http://www.w3.org/2000/svg" width="1000" height="620" viewBox="0 0 1000 620">
  <rect width="1000" height="620" fill="#f7f8f5"/>
  <rect x="80" y="115" width="840" height="350" fill="#d7d0c2"/>
  <g fill="#f4f1ea">
    <rect x="120" y="158" width="80" height="250"/>
    <rect x="232" y="158" width="80" height="250"/>
    <rect x="344" y="158" width="80" height="250"/>
    <rect x="456" y="158" width="80" height="250"/>
    <rect x="568" y="158" width="80" height="250"/>
    <rect x="680" y="158" width="80" height="250"/>
    <rect x="792" y="158" width="80" height="250"/>
  </g>
  <g fill="#8fb0bd" opacity=".85">
    <rect x="132" y="180" width="56" height="80"/>
    <rect x="244" y="255" width="56" height="80"/>
    <rect x="356" y="180" width="56" height="80"/>
    <rect x="468" y="255" width="56" height="80"/>
    <rect x="580" y="180" width="56" height="80"/>
    <rect x="692" y="255" width="56" height="80"/>
    <rect x="804" y="180" width="56" height="80"/>
  </g>
  <path d="M80 465 L920 465 L870 525 L130 525 Z" fill="#aab4aa"/>
  <g font-family="Arial, sans-serif" font-size="30" fill="#123456">
    <text x="80" y="78">Facade rhythm: solid / void / shading depth</text>
  </g>
</svg>
