<svg xmlns="http://www.w3.org/2000/svg" width="1200" height="760" viewBox="0 0 1200 760">
  <rect width="1200" height="760" fill="#fbfaf7"/>
  <rect x="62" y="62" width="1076" height="636" fill="#ffffff" stroke="#cfd6d2" stroke-width="4"/>
  <g fill="#f2f2f2" stroke="#123456" stroke-width="5">
    <rect x="160" y="150" width="265" height="185"/>
    <rect x="505" y="145" width="255" height="150"/>
    <rect x="810" y="165" width="205" height="170"/>
    <rect x="215" y="430" width="360" height="145"/>
    <rect x="660" y="425" width="255" height="155"/>
  </g>
  <g fill="#d7d0c2">
    <rect x="192" y="182" width="76" height="116"/>
    <rect x="292" y="182" width="76" height="116"/>
    <rect x="535" y="176" width="78" height="92"/>
    <rect x="638" y="176" width="78" height="92"/>
    <rect x="845" y="205" width="58" height="100"/>
    <rect x="925" y="205" width="58" height="100"/>
    <rect x="250" y="462" width="104" height="82"/>
    <rect x="395" y="462" width="104" height="82"/>
    <rect x="700" y="455" width="82" height="98"/>
    <rect x="812" y="455" width="82" height="98"/>
  </g>
  <g stroke="#cfd6d2" stroke-width="10" fill="none">
    <path d="M85 385 C220 342 330 376 470 345 C650 305 820 335 1115 250"/>
    <path d="M110 625 C280 585 420 645 585 600 C785 545 900 590 1110 530"/>
  </g>
  <g stroke="#c8102e" stroke-width="8" fill="none" stroke-linecap="round">
    <path d="M140 385 L320 350 L545 382 L750 315 L1005 352"/>
    <path d="M600 112 L600 648"/>
    <path d="M110 382 L1090 382"/>
  </g>
  <g fill="#c8102e">
    <circle cx="600" cy="382" r="16"/>
    <circle cx="320" cy="350" r="13"/>
    <circle cx="750" cy="315" r="13"/>
  </g>
  <g font-family="Arial, sans-serif" fill="#123456">
    <text x="90" y="108" font-size="34" font-weight="700">Level 01 Plan / PDF Preview</text>
    <text x="90" y="666" font-size="22">PDF page 1 / Trim crop / Linked drawing asset</text>
  </g>
</svg>
